<?xml version="1.0" encoding="UTF-8"?>
<svg id="Layer_1" data-name="Layer 1" xmlns="http://www.w3.org/2000/svg" viewBox="0 0 2160 2160">
  <defs>
    <style>
      .cls-1 {
        fill: #fff;
      }
    </style>
  </defs>
  <path class="cls-1" d="M537.47,432c-.44.77-.89,1.53-1.35,2.3l-2.3-2.3h3.65Z"/>
  <path class="cls-1" d="M1926.13,1155.82c-17.53-2.51-35.63-3.82-54.13-3.82v-216c0-119.29-128.94-216-288-216s-288,96.71-288,216v216c-18.5,0-36.6,1.31-54.13,3.82-133.18,18.99-233.87,106.77-233.87,212.18v576c0,119.29,128.94,216,288,216h576c159.06,0,288-96.71,288-216v-576c0-105.41-100.69-193.19-233.87-212.18ZM1440,936c0-39.76,64.47-72,144-72s144,32.24,144,72v216h-288v-216ZM2016,1944c0,39.76-64.47,72-144,72h-576c-79.53,0-144-32.24-144-72v-576c0-39.76,64.47-72,144-72h271.6c-.03-.09-.07-.17-.12-.26,5.48.17,10.99.26,16.52.26s11.04-.09,16.52-.26c-.05.09-.09.17-.12.26h271.6c79.53,0,144,32.24,144,72v576Z"/>
  <path class="cls-1" d="M1872,288v379.68c-41.55-31-90.34-55.39-144-71.19v-308.49c0-79.53-64.47-144-144-144H288c-79.53,0-144,64.47-144,144v1296c0,79.53,64.47,144,144,144h576v144H288C128.94,1872,0,1743.06,0,1584V288C0,128.94,128.94,0,288,0h1296c159.06,0,288,128.94,288,288Z"/>
  <path class="cls-1" d="M1584,1296h-16.4c-.03-.09-.07-.17-.12-.26,5.48.17,10.99.26,16.52.26Z"/>
  <path class="cls-1" d="M1600.52,1295.74c-.05.09-.09.17-.12.26h-16.4c5.53,0,11.04-.09,16.52-.26Z"/>
  <rect class="cls-1" x="792" y="936" width="360" height="144"/>
  <polygon class="cls-1" points="785.29 683.47 734.38 734.38 683.47 785.29 532.76 936 388.76 1080 288 1080 288 977.12 581.65 683.47 434.3 536.12 288 389.82 288 288 389.82 288 785.29 683.47"/>
  <path class="cls-1" d="M1767.28,1836l-25.42-84.74-4.54-15.13c38.75-39.04,62.68-92.79,62.68-152.13,0-2.29-.04-4.56-.11-6.83-3.61-116.13-98.89-209.17-215.89-209.17s-212.28,93.04-215.89,209.17c-.07,2.27-.11,4.54-.11,6.83,0,59.34,23.93,113.09,62.68,152.13l-4.54,15.13-25.42,84.74-15.45,51.51-16.95,56.49h431.36l-16.95-56.49-15.45-51.51ZM1691.99,1585.03c-.46,50.11-35.04,92.05-81.64,103.73l31.06,103.52,5.18,17.28,7.93,26.44h-141.04l7.93-26.44,5.19-17.28,31.05-103.52c-46.6-11.68-81.19-53.64-81.64-103.75-.01-.34-.01-.67-.01-1.01,0-21.63,6.36-41.77,17.3-58.66h.01c10.58-16.33,25.44-29.61,42.99-38.25,0,0,0-.01.01-.01,14.38-7.1,30.57-11.08,47.69-11.08s33.31,3.98,47.69,11.08c.01,0,.01.01.01.01,17.55,8.64,32.41,21.92,42.99,38.24h.01c10.94,16.9,17.3,37.04,17.3,58.67,0,.34,0,.69-.01,1.03Z"/>
</svg>